<svg width="80" height="80" viewBox="0 0 80 80" fill="none" xmlns="http://www.w3.org/2000/svg">
<rect width="80" height="80" rx="12" fill="#E2E8F0" fill-opacity="0.35"/>
<rect x="4" y="4" width="72" height="72" rx="12" fill="white"/>
<path d="M61 30.6667C63.5774 30.6667 65.6667 32.756 65.6667 35.3334V44.6667C65.6667 47.2441 63.5774 49.3334 61 49.3334H58.5223C57.374 58.5414 49.5191 65.6667 40 65.6667V61C47.732 61 54 54.732 54 47V33C54 25.2681 47.732 19 40 19C32.2681 19 26 25.2681 26 33V49.3334H19C16.4227 49.3334 14.3334 47.2441 14.3334 44.6667V35.3334C14.3334 32.756 16.4227 30.6667 19 30.6667H21.4778C22.626 21.4587 30.4809 14.3334 40 14.3334C49.5191 14.3334 57.374 21.4587 58.5223 30.6667H61ZM30.1054 48.8315L32.5791 44.8737C34.7305 46.2212 37.2742 47 40 47C42.7258 47 45.2696 46.2212 47.421 44.8737L49.8948 48.8315C47.0262 50.6281 43.6344 51.6667 40 51.6667C36.3656 51.6667 32.974 50.6281 30.1054 48.8315Z" fill="#1A73E8"/>
</svg>
