<svg width="29" height="28" viewBox="0 0 29 28" fill="none" xmlns="http://www.w3.org/2000/svg">
<path d="M26.3854 7.21749C25.5131 7.61401 24.5728 7.87459 23.5985 7.99921C24.5954 7.39876 25.3658 6.44711 25.7283 5.30286C24.788 5.86932 23.7457 6.26584 22.6468 6.49243C21.7518 5.51812 20.4943 4.95166 19.0668 4.95166C16.4044 4.95166 14.2292 7.12686 14.2292 9.81187C14.2292 10.1971 14.2746 10.5709 14.3539 10.9221C10.3207 10.7182 6.72933 8.78092 4.33887 5.84666C3.91969 6.5604 3.68178 7.39876 3.68178 8.28244C3.68178 9.97048 4.53147 11.4659 5.84565 12.3156C5.04128 12.3156 4.29356 12.089 3.63646 11.7492V11.7831C3.63646 14.1396 5.31318 16.1109 7.5337 16.5527C6.82078 16.7478 6.07234 16.775 5.34717 16.632C5.65488 17.5978 6.25751 18.4429 7.07035 19.0485C7.8832 19.654 8.86538 19.9896 9.87884 20.0081C8.16091 21.3681 6.03145 22.1032 3.84039 22.0927C3.4552 22.0927 3.07001 22.07 2.68481 22.0247C4.83736 23.4069 7.39775 24.2112 10.1394 24.2112C19.0668 24.2112 23.9723 16.802 23.9723 10.3783C23.9723 10.1631 23.9723 9.95915 23.961 9.7439C24.9126 9.06415 25.7283 8.20313 26.3854 7.21749Z" fill="white"/>
</svg>
