<svg width="13" height="16" viewBox="0 0 13 16" fill="none" xmlns="http://www.w3.org/2000/svg">
<path fill-rule="evenodd" clip-rule="evenodd" d="M4.08705 3.53234C4.11971 3.4996 4.1585 3.47363 4.20121 3.45591C4.24392 3.43818 4.28971 3.42906 4.33596 3.42906C4.3822 3.42906 4.42799 3.43818 4.4707 3.45591C4.51341 3.47363 4.5522 3.4996 4.58486 3.53234L8.80361 7.75109C8.83635 7.78375 8.86233 7.82255 8.88005 7.86526C8.89777 7.90797 8.9069 7.95376 8.9069 8C8.9069 8.04624 8.89777 8.09203 8.88005 8.13474C8.86233 8.17745 8.83635 8.21625 8.80361 8.24891L4.58486 12.4677C4.51885 12.5337 4.42931 12.5708 4.33596 12.5708C4.2426 12.5708 4.15306 12.5337 4.08705 12.4677C4.02104 12.4016 3.98395 12.3121 3.98395 12.2187C3.98395 12.1254 4.02104 12.0359 4.08705 11.9698L8.0576 8L4.08705 4.03016C4.05431 3.9975 4.02833 3.9587 4.01061 3.91599C3.99289 3.87328 3.98376 3.82749 3.98376 3.78125C3.98376 3.73501 3.99289 3.68922 4.01061 3.64651C4.02833 3.6038 4.05431 3.565 4.08705 3.53234Z" fill="#3C4852" stroke="#3C4852" stroke-width="1.05469"/>
</svg>
