<svg width="12" height="16" viewBox="0 0 12 16" fill="none" xmlns="http://www.w3.org/2000/svg">
<path fill-rule="evenodd" clip-rule="evenodd" d="M3.26674 3.53235C3.29939 3.49961 3.33819 3.47363 3.3809 3.45591C3.42361 3.43818 3.4694 3.42906 3.51564 3.42906C3.56189 3.42906 3.60767 3.43818 3.65039 3.45591C3.6931 3.47363 3.73189 3.49961 3.76455 3.53235L7.9833 7.7511C8.01604 7.78375 8.04201 7.82255 8.05974 7.86526C8.07746 7.90797 8.08658 7.95376 8.08658 8C8.08658 8.04625 8.07746 8.09203 8.05974 8.13474C8.04201 8.17746 8.01604 8.21625 7.9833 8.24891L3.76455 12.4677C3.69854 12.5337 3.609 12.5708 3.51564 12.5708C3.42229 12.5708 3.33275 12.5337 3.26674 12.4677C3.20072 12.4016 3.16364 12.3121 3.16364 12.2188C3.16364 12.1254 3.20072 12.0359 3.26674 11.9698L7.23728 8L3.26674 4.03016C3.234 3.9975 3.20802 3.95871 3.1903 3.916C3.17257 3.87328 3.16345 3.8275 3.16345 3.78125C3.16345 3.73501 3.17257 3.68922 3.1903 3.64651C3.20802 3.6038 3.234 3.565 3.26674 3.53235Z" fill="#3C4852" stroke="#3C4852" stroke-width="1.05469"/>
</svg>
