<svg width="28" height="28" viewBox="0 0 28 28" fill="none" xmlns="http://www.w3.org/2000/svg">
<path d="M5.66464 3.81885H21.5255C22.1264 3.81885 22.7027 4.05757 23.1277 4.48249C23.5526 4.90742 23.7913 5.48374 23.7913 6.08468V21.9455C23.7913 22.5465 23.5526 23.1228 23.1277 23.5477C22.7027 23.9726 22.1264 24.2113 21.5255 24.2113H5.66464C5.0637 24.2113 4.48738 23.9726 4.06245 23.5477C3.63752 23.1228 3.3988 22.5465 3.3988 21.9455V6.08468C3.3988 5.48374 3.63752 4.90742 4.06245 4.48249C4.48738 4.05757 5.0637 3.81885 5.66464 3.81885ZM20.3926 6.08468H17.5603C16.5086 6.08468 15.5001 6.50244 14.7564 7.24606C14.0128 7.98968 13.5951 8.99825 13.5951 10.0499V12.8822H11.3292V16.2809H13.5951V24.2113H16.9938V16.2809H20.3926V12.8822H16.9938V10.6163C16.9938 10.3159 17.1132 10.0277 17.3256 9.81525C17.5381 9.60279 17.8263 9.48343 18.1267 9.48343H20.3926V6.08468Z" fill="white"/>
</svg>
