<svg width="28" height="28" viewBox="0 0 28 28" fill="none" xmlns="http://www.w3.org/2000/svg">
<path d="M11.6393 17.4138L17.5191 14.015L11.6393 10.6163V17.4138ZM24.7358 8.54302C24.8831 9.07549 24.985 9.78923 25.053 10.6956C25.1323 11.6019 25.1663 12.3836 25.1663 13.0634L25.2343 14.015C25.2343 16.4961 25.053 18.3201 24.7358 19.487C24.4525 20.5066 23.7955 21.1637 22.7758 21.4469C22.2434 21.5942 21.2691 21.6962 19.7736 21.7642C18.3008 21.8435 16.9526 21.8775 15.7064 21.8775L13.9051 21.9454C9.15817 21.9454 6.20126 21.7642 5.03436 21.4469C4.01473 21.1637 3.35764 20.5066 3.07441 19.487C2.92713 18.9545 2.82517 18.2408 2.75719 17.3345C2.67789 16.4281 2.6439 15.6464 2.6439 14.9667L2.57593 14.015C2.57593 11.5339 2.75719 9.70993 3.07441 8.54302C3.35764 7.5234 4.01473 6.86631 5.03436 6.58308C5.56683 6.4358 6.54114 6.33384 8.03659 6.26586C9.50938 6.18656 10.8575 6.15257 12.1038 6.15257L13.9051 6.08459C18.652 6.08459 21.6089 6.26586 22.7758 6.58308C23.7955 6.86631 24.4525 7.5234 24.7358 8.54302Z" fill="white"/>
</svg>
