<svg width="16" height="16" viewBox="0 0 16 16" fill="none" xmlns="http://www.w3.org/2000/svg">
<path fill-rule="evenodd" clip-rule="evenodd" d="M4.64604 1.64599C4.69248 1.59943 4.74766 1.56249 4.80841 1.53728C4.86915 1.51207 4.93427 1.4991 5.00004 1.4991C5.06581 1.4991 5.13093 1.51207 5.19167 1.53728C5.25242 1.56249 5.30759 1.59943 5.35404 1.64599L11.354 7.64599C11.4006 7.69244 11.4375 7.74761 11.4628 7.80836C11.488 7.86911 11.5009 7.93423 11.5009 7.99999C11.5009 8.06576 11.488 8.13088 11.4628 8.19163C11.4375 8.25237 11.4006 8.30755 11.354 8.35399L5.35404 14.354C5.26015 14.4479 5.13281 14.5006 5.00004 14.5006C4.86726 14.5006 4.73993 14.4479 4.64604 14.354C4.55215 14.2601 4.49941 14.1328 4.49941 14C4.49941 13.8672 4.55215 13.7399 4.64604 13.646L10.293 7.99999L4.64604 2.35399C4.59948 2.30755 4.56253 2.25237 4.53733 2.19163C4.51212 2.13088 4.49915 2.06576 4.49915 1.99999C4.49915 1.93423 4.51212 1.86911 4.53733 1.80836C4.56253 1.74761 4.59948 1.69244 4.64604 1.64599Z" fill="white" stroke="white" stroke-width="1.5"/>
</svg>
