<svg width="12" height="16" viewBox="0 0 12 16" fill="none" xmlns="http://www.w3.org/2000/svg">
<path fill-rule="evenodd" clip-rule="evenodd" d="M3.64662 3.53234C3.67928 3.4996 3.71807 3.47363 3.76078 3.4559C3.80349 3.43818 3.84928 3.42906 3.89553 3.42906C3.94177 3.42906 3.98756 3.43818 4.03027 3.4559C4.07298 3.47363 4.11177 3.4996 4.14443 3.53234L8.36318 7.75109C8.39592 7.78375 8.4219 7.82255 8.43962 7.86526C8.45734 7.90797 8.46647 7.95376 8.46647 8C8.46647 8.04624 8.45734 8.09203 8.43962 8.13474C8.4219 8.17745 8.39592 8.21625 8.36318 8.24891L4.14443 12.4677C4.07842 12.5337 3.98888 12.5708 3.89553 12.5708C3.80217 12.5708 3.71263 12.5337 3.64662 12.4677C3.58061 12.4016 3.54352 12.3121 3.54352 12.2187C3.54352 12.1254 3.58061 12.0359 3.64662 11.9698L7.61717 8L3.64662 4.03016C3.61388 3.9975 3.5879 3.9587 3.57018 3.91599C3.55246 3.87328 3.54333 3.82749 3.54333 3.78125C3.54333 3.73501 3.55246 3.68922 3.57018 3.64651C3.5879 3.6038 3.61388 3.565 3.64662 3.53234Z" fill="#3C4852" stroke="#3C4852" stroke-width="1.05469"/>
</svg>
